<svg width="1049" height="1037" viewBox="0 0 1049 1037" fill="none" xmlns="http://www.w3.org/2000/svg">
<path d="M119.809 526.414L124.543 538.586L139.083 556.507L147.874 571.385L151.931 580.176L151.931 587.615L155.651 596.406L161.399 605.535L164.66 610.428C164.74 610.547 164.807 610.675 164.859 610.808L167.759 618.22C167.802 618.329 167.835 618.442 167.858 618.557L170.19 630.218L175.262 651.858L176.89 665.204C176.931 665.543 176.885 665.888 176.756 666.204L175.431 669.441L173.735 672.526C173.627 672.722 173.487 672.899 173.32 673.049L170.698 675.408C170.369 675.705 170.147 676.102 170.068 676.537L169.578 679.232C169.536 679.465 169.535 679.704 169.576 679.938L170.337 684.25C170.456 684.924 170.912 685.491 171.545 685.752L176.125 687.637C176.226 687.679 176.33 687.712 176.437 687.736L180.672 688.714L184.73 690.743L190.478 694.8L194.874 699.872L199.607 701.225L210.427 701.225L217.528 700.887L221.247 700.548L224.967 699.534L229.362 698.858L233.758 698.181L239.506 695.815L242.549 694.8L244.916 692.433L247.959 688.376L249.311 686.347L250.326 684.995L255.06 684.995L257.088 684.318L259.455 681.613L260.808 679.585L263.513 677.894L271.29 674.174L285.154 669.102L289.887 668.426L292.917 669.436C293.594 669.662 294.312 669.74 295.022 669.665L300.369 669.102L313.218 669.102L326.394 669.102C327.071 669.102 327.741 668.965 328.363 668.698L333.451 666.517C334.155 666.216 334.78 665.757 335.278 665.176L337.374 662.73C338.151 661.823 338.578 660.669 338.578 659.476L338.578 650.167L339.7 642.025C339.848 640.946 340.346 639.944 341.116 639.173L342.97 637.318L346.352 634.951L348.79 631.54C349.404 630.681 350.274 630.038 351.276 629.704L354.397 628.663C354.67 628.573 354.934 628.459 355.186 628.322L358.682 626.44C359.028 626.254 359.35 626.028 359.642 625.767L368.668 617.707L372.837 617.216C373.864 617.095 374.829 616.659 375.598 615.967L377.39 614.354C377.661 614.11 377.957 613.897 378.274 613.718L385.574 609.592L389.843 608.587C390.807 608.36 391.817 608.425 392.744 608.773L395.031 609.63C396.13 610.042 397.339 610.055 398.446 609.665L414.991 603.844L428.423 598.274C428.71 598.155 428.985 598.01 429.245 597.84L437.645 592.347L448.465 592.347L470.781 589.642L493.348 589.642C494.074 589.642 494.791 589.801 495.45 590.106L507.726 595.795C508.116 595.975 508.527 596.105 508.95 596.18L526.865 599.38C527.12 599.425 527.371 599.49 527.616 599.575L544.634 605.443C546.044 605.929 547.163 607.019 547.686 608.415L550.434 615.742C550.75 616.585 551.288 617.328 551.992 617.89L556.955 621.861C557.434 622.244 557.838 622.712 558.148 623.242L570.099 643.686C570.383 644.171 570.583 644.701 570.691 645.253L574.54 665.013C575.107 667.923 578.068 669.704 580.904 668.841L581.455 668.673C582.689 668.297 583.73 667.46 584.36 666.336L590.682 655.066C590.994 654.51 591.409 654.019 591.906 653.619L603.327 644.419L613.471 634.951L616.173 617.926C616.434 616.285 618.519 615.733 619.557 617.031V617.031L624.967 629.203L622.6 641.714L616.852 650.505L615.358 666.941C615.232 668.319 614.541 669.585 613.448 670.435L607.963 674.701C606.744 675.648 606.032 677.106 606.032 678.649L606.033 679.922L606.033 679.584V679.584C605.812 680.468 606.834 681.132 607.552 680.571L613.133 676.203L615.308 676.203C617.758 676.203 619.847 674.428 620.243 672.01L622.6 657.606L628.351 652.783C630.787 650.739 634.487 651.46 635.979 654.268L638.276 658.591C638.64 659.277 638.84 660.039 638.859 660.815L639.135 672.133C639.157 673.026 638.939 673.909 638.503 674.69L631.966 686.411C631.044 688.065 632.638 689.988 634.434 689.39V689.39L645.931 686.685L657.995 671.302C658.474 670.691 659.456 671.03 659.456 671.807V671.807L658.103 684.318L658.103 695.727C658.103 696.453 658.261 697.169 658.566 697.828L665.831 713.521C666.301 714.536 666.417 715.679 666.161 716.767L664.312 724.626C664.016 725.882 664.218 727.204 664.874 728.315L667.752 733.185C668.079 733.738 668.509 734.223 669.02 734.613L673.731 738.216C673.906 738.349 674.058 738.511 674.18 738.695L677.376 743.49L679.737 746.441C679.963 746.722 680.259 746.938 680.597 747.064L687.857 749.787C688.081 749.871 688.319 749.914 688.559 749.914L702.06 749.914L714.238 751.196C714.673 751.242 715.081 751.429 715.399 751.729L723.863 759.695C725.39 761.132 727.651 761.463 729.526 760.526L732.804 758.887C733.046 758.766 733.277 758.626 733.496 758.468L739.253 754.31L749.479 746.491C750.305 745.858 750.914 744.984 751.22 743.989L751.412 743.366C751.849 741.945 752.896 740.792 754.268 740.22L755.646 739.646C755.987 739.504 756.312 739.324 756.613 739.111L762.802 734.727C763.639 734.135 764.788 734.271 765.463 735.042L771.375 741.799L766.641 747.885L764.372 750.407C763.863 750.973 763.49 751.647 763.281 752.378L762.922 753.634L762.979 753.806C763.16 754.348 763.534 754.805 764.031 755.088V755.088C764.966 755.623 766.146 755.444 766.881 754.656L770.361 750.928L772.13 748.4C772.505 747.865 773.116 747.547 773.769 747.547L775.886 747.547C776.644 747.547 777.336 747.975 777.675 748.653L778.253 749.808C778.595 750.493 778.516 751.314 778.049 751.922L776.609 753.793C775.952 754.647 776.09 755.868 776.921 756.554L782.654 761.29C783.012 761.587 783.463 761.749 783.928 761.749L799.509 761.749C799.904 761.749 800.29 761.632 800.619 761.413L805.067 758.447C805.147 758.394 805.23 758.347 805.316 758.306L818.992 751.793C819.253 751.669 819.484 751.49 819.669 751.268L827.842 741.461L848.467 741.461L863.683 734.022L863.683 720.159L875.179 691.08L882.618 673.498L895.318 660.163C895.86 659.593 896.261 658.904 896.487 658.151L899.755 647.256C900.045 646.289 900.621 645.432 901.408 644.799L910.51 637.467C911.688 636.518 912.373 635.086 912.373 633.573L912.373 627.488C912.373 626.004 913.032 624.597 914.172 623.647L918.459 620.074L922.044 609.646C922.133 609.387 922.274 609.15 922.458 608.948L929.279 601.477L929.279 587.952L936.38 583.556L937.395 569.355L939.796 565.087C940.217 564.338 940.438 563.494 940.438 562.635L940.438 553.092C940.438 551.24 941.461 549.54 943.098 548.673L945.431 547.438C945.931 547.174 946.382 546.826 946.765 546.411L949.843 543.077C950.109 542.789 950.34 542.47 950.532 542.128L954.087 535.779C954.662 534.753 954.856 533.556 954.636 532.401L952.272 519.989L944.157 509.169L944.157 492.939L944.157 469.608L941.919 457.13C941.835 456.659 941.683 456.204 941.47 455.776L935.823 444.484C934.406 441.65 932.442 439.124 930.044 437.053L926.238 433.766L925.416 430.206C925.289 429.653 925.068 429.126 924.763 428.647L922.857 425.651L919.783 424.813C919.355 424.696 918.912 424.637 918.468 424.637L914.742 424.637L912.021 420.155C910.029 416.875 907.31 414.098 904.073 412.038L901.555 410.436L901.555 400.63L900.879 392.177L894.785 385.778C894.343 385.315 893.816 384.94 893.233 384.675L889.535 382.994C887.788 382.2 885.74 382.476 884.266 383.705L883.338 384.478C882.864 384.873 882.317 385.171 881.728 385.355V385.355C879.236 386.133 876.587 384.737 875.821 382.242L866.728 352.616L859.289 344.163L858.275 341.458L857.26 337.062L854.555 333.005L850.498 330.976L845.426 326.242L837.649 325.228L830.21 320.494L823.448 316.098L818.714 310.35L810.599 307.983L806.203 301.897L806.203 295.135L802.935 291.865C801.997 290.928 801.471 289.656 801.471 288.33L801.471 281.272L801.471 273.409C801.471 272.795 801.358 272.187 801.137 271.614L798.09 263.689L794.032 255.236L787.645 248.572C786.753 247.641 786.255 246.401 786.255 245.112L786.255 231.938C786.255 231.032 786.009 230.142 785.543 229.365L783.925 226.669C783.458 225.892 783.212 225.002 783.212 224.096L783.212 218.211L783.212 212.875C783.212 211.631 782.749 210.432 781.912 209.511L780.763 208.248C780.169 207.595 779.328 207.222 778.445 207.222V207.222C777.228 207.222 776.121 206.517 775.606 205.414L774.302 202.621C774.156 202.308 773.978 202.011 773.771 201.735L772.027 199.409C771.386 198.554 770.487 197.927 769.464 197.62L766.276 196.664C764.997 196.28 763.617 196.424 762.445 197.063L757.958 199.511C757.223 199.912 756.4 200.121 755.563 200.121L752.289 200.121C749.995 200.121 747.995 198.56 747.438 196.334L744.429 184.294C744.361 184.026 744.317 183.753 744.295 183.477L742.681 163.138C742.652 162.773 742.583 162.413 742.475 162.063L740.297 154.985C740.057 154.206 739.631 153.497 739.054 152.92L733.786 147.652C733.161 147.027 732.713 146.247 732.487 145.392L725.737 119.798C725.113 117.432 723.188 115.634 720.786 115.172V115.172C717.927 114.622 715.06 116.084 713.824 118.72L710.853 125.057L711.868 137.568L706.458 142.302L706.458 162.589L705.443 172.395L702.4 180.51L702.4 196.064L701.385 212.294L699.224 217.157C697.974 219.97 697.328 223.014 697.328 226.092L697.328 230.553L693.27 245.092L689.85 249.49C687.444 252.583 685.952 256.287 685.542 260.184L684.968 265.636C684.873 266.542 684.37 267.357 683.602 267.848L676.364 272.48L667.195 273.829C665.653 274.056 664.084 274.041 662.547 273.784L657.691 272.975C655.765 272.654 653.996 271.715 652.65 270.3L642.502 259.633C641.864 258.961 641.113 258.405 640.284 257.991L634.098 254.898L620.911 250.502L593.9 234.668C592.361 233.766 591.25 232.283 590.818 230.553V230.553L558.207 208.051C557.628 207.652 557.631 206.796 558.213 206.401L565.458 201.474L568.502 188.625L568.502 176.766C568.502 175.282 569.161 173.875 570.301 172.925L573.473 170.281C574.201 169.674 575.087 169.287 576.027 169.164L580.846 168.536C581.781 168.414 582.572 167.786 582.902 166.904V166.904C583.2 166.109 583.083 165.218 582.59 164.528L582.219 164.009C581 162.301 581.42 159.925 583.152 158.741L584.246 157.992C585.608 157.06 586.422 155.516 586.422 153.866L586.422 150.476C586.422 149.768 586.272 149.069 585.982 148.424L583.91 143.819C583.587 143.102 582.873 142.64 582.086 142.64L575.94 142.64L575.94 147.712L569.854 158.194L568.502 145.683L527.25 142.64L506.962 137.906L502.64 133.584C501.931 132.875 501.025 132.396 500.04 132.208L495.797 131.4C494.916 131.232 494.097 130.831 493.424 130.237L489.721 126.969C489.055 126.382 488.244 125.982 487.372 125.811L476.698 123.723C475.702 123.528 475.083 124.769 475.837 125.447L476.53 126.072L478.472 127.528C478.976 127.906 479.548 128.186 480.156 128.352L486.248 130.013C486.532 130.09 486.808 130.192 487.073 130.318L491.338 132.338C492.47 132.875 493.36 133.817 493.831 134.978L496.754 142.19C497.593 144.258 496.959 146.631 495.202 148.006L491.751 150.707C490.872 151.395 489.787 151.769 488.67 151.769L479.912 151.769L469.43 149.064L462.778 147.876C460.938 147.548 459.042 147.742 457.306 148.436L451.509 150.755L451.357 151.119C450.363 153.505 450.241 156.164 451.012 158.631L451.16 159.106C451.344 159.692 450.96 160.304 450.352 160.394L442.811 161.511C442.536 161.552 442.29 161.705 442.133 161.934L438.932 166.59C438.76 166.84 438.711 167.154 438.798 167.444L440.594 173.429C440.656 173.636 440.783 173.817 440.956 173.945L444.949 176.903C446.498 178.05 445.687 180.51 443.758 180.51L437.751 180.51C435.753 180.51 434.061 181.984 433.788 183.963L433.074 189.14C432.97 189.895 432.583 190.582 431.99 191.062L426.553 195.463C426.084 195.843 425.812 196.414 425.812 197.018L425.812 199.474C425.812 200.578 426.707 201.474 427.812 201.474L428.177 201.474C428.85 201.474 429.331 202.125 429.133 202.768L428.665 204.287C428.444 205.006 429.066 205.703 429.805 205.564L433.117 204.943C433.415 204.887 433.722 204.97 433.952 205.167L434.971 206.04C435.469 206.467 435.428 207.248 434.89 207.622L432.697 209.139C432.013 209.613 431.693 210.461 431.895 211.269L432.792 214.854C432.871 215.171 433.027 215.464 433.245 215.707L435.536 218.253C435.809 218.556 436.168 218.768 436.565 218.862L439.348 219.516C440.477 219.782 440.981 221.103 440.316 222.053V222.053C439.702 222.93 438.699 223.452 437.629 223.452L434.182 223.452C433.356 223.452 432.55 223.196 431.875 222.72L427.164 219.394L418.784 212.81C418.08 212.257 417.209 211.956 416.313 211.956L411.054 211.956C409.884 211.956 408.751 212.366 407.853 213.114L403.84 216.459C403.388 216.835 402.874 217.129 402.32 217.326L400.917 217.827C399.357 218.385 398.175 219.678 397.759 221.281L396.535 226.001C396.227 227.19 395.491 228.224 394.469 228.906L389.401 232.285C388.566 232.841 387.447 232.693 386.786 231.938L386.607 231.732C386.001 231.039 385.946 230.022 386.474 229.268L387.942 227.171L389.258 224.978C389.724 224.2 389.97 223.311 389.97 222.405L389.97 217.751C389.97 217.292 390.174 216.858 390.526 216.565V216.565C391.428 215.813 391.826 214.614 391.551 213.472L390.273 208.144C390.073 207.313 389.699 206.535 389.175 205.861L383.66 198.771C383.139 198.101 382.482 197.549 381.731 197.152L371.373 191.668L368.76 189.578C367.616 188.663 365.908 189.248 365.566 190.673L364.456 195.297C364.349 195.747 363.946 196.064 363.484 196.064L356.496 196.064L353.791 198.431L349.395 196.74L349.395 208.237L339.928 208.237V208.237C339.037 206.633 336.93 206.196 335.474 207.312L331.757 210.162C329.688 211.748 329.185 214.657 330.601 216.846L331.813 218.718L335.87 220.409L338.88 222.667C339.649 223.243 339.241 224.467 338.28 224.467L332.489 224.467L331.403 224.105C329.196 223.369 327.028 225.315 327.522 227.588L328.093 230.215L323.156 230.215C322.845 230.215 322.539 230.143 322.261 230.004L320.565 229.156C318.866 228.306 316.815 229.23 316.325 231.066L315.921 232.582L308.482 236.639V236.639C308.028 236.866 308.256 237.554 308.755 237.466L315.891 236.207C316.48 236.103 316.946 236.699 316.703 237.246L312.392 246.946C312.125 247.547 312.5 248.237 313.149 248.34L318.921 249.258C320.082 249.443 320.027 251.132 318.857 251.241L315.921 251.517L314.665 251.876C313.977 252.072 313.447 252.62 313.274 253.314L313.019 254.332C312.754 255.395 311.682 256.046 310.616 255.792L305.439 254.56L301.81 250.023C301.219 249.285 300.029 249.703 300.029 250.648L300.029 252.854C300.029 253.5 299.717 254.106 299.191 254.482L296.133 256.667C295.607 257.042 295.295 257.648 295.295 258.294L295.295 260.275C295.295 260.931 295.617 261.545 296.157 261.919L299.02 263.901C299.465 264.209 299.867 264.577 300.214 264.993L301.505 266.542C302.315 267.514 302.03 268.984 300.917 269.584L300.316 269.907C299.392 270.404 299.01 271.532 299.441 272.489L301.184 276.363C301.539 277.151 301.763 277.991 301.849 278.85L302.349 283.843C302.379 284.142 302.273 284.438 302.061 284.65L299.469 287.241C299.047 287.664 298.351 287.624 297.979 287.156L289.547 276.538L288.643 274.428C288.571 274.26 288.454 274.115 288.305 274.009L286.753 272.9C286.374 272.629 286.101 272.234 285.982 271.783L281.356 254.253C281.065 253.152 279.454 253.315 279.39 254.453L279.139 258.982C279.094 259.786 278.572 260.484 277.815 260.755L274.994 261.762C274.565 261.915 274.201 262.21 273.963 262.597L271.838 266.05C271.698 266.277 271.515 266.474 271.297 266.629L270.935 266.888C269.883 267.639 269.26 268.852 269.26 270.143L269.26 272.631C269.26 273.617 268.868 274.563 268.17 275.261V275.261C266.718 276.713 266.718 279.068 268.17 280.521L270.017 282.368C270.41 282.76 270.716 283.229 270.917 283.746L272.173 286.977C272.674 288.265 272.475 289.721 271.645 290.827L266.893 297.164L260.015 305.836C259.424 306.581 259.019 307.456 258.832 308.388L257.182 316.636C257.119 316.952 257.005 317.256 256.845 317.536L251.677 326.581L208.59 343.615C208.239 343.754 207.865 343.825 207.487 343.825L204.225 343.825C203.199 343.825 202.198 344.141 201.358 344.729L199.267 346.192L187.429 349.657C186.089 350.049 184.829 350.672 183.703 351.497L175.74 357.337C172.239 359.904 167.746 360.702 163.575 359.497L156.246 357.38C155.435 357.145 154.563 357.264 153.844 357.705L140.095 366.141L126.232 377.3L113.665 390.512C113.255 390.942 112.926 391.442 112.692 391.988L109.677 399.023C109.223 400.082 108.546 401.031 107.691 401.804L101.887 407.055L100.432 397.45C100.297 396.557 99.529 395.896 98.6258 395.896V395.896C97.7664 395.897 97.0233 396.495 96.8407 397.335L95.9104 401.615C95.617 402.964 95.678 404.367 96.0873 405.685L98.1465 412.321C98.3848 413.089 98.506 413.888 98.506 414.692L98.506 428.86C98.506 429.644 98.3525 430.42 98.0541 431.145L96.1391 435.795L95.0414 441.01C94.8962 441.699 95.2913 442.388 95.9598 442.611V442.611C96.4357 442.769 96.9513 442.52 97.1217 442.048L99.6821 434.957C100.045 433.951 101.522 434.141 101.619 435.206L101.803 437.231C101.858 437.838 102.096 438.413 102.486 438.88L104.573 441.385C105.022 441.924 105.268 442.604 105.268 443.306L105.268 448.619C105.268 449.682 104.706 450.666 103.79 451.205L102.371 452.039C100.643 453.056 99.6887 455.007 99.9481 456.996L100.362 460.166C100.475 461.035 100.815 461.86 101.348 462.556L109.326 472.989L113.933 480.36C114.24 480.852 114.46 481.395 114.582 481.962L116.427 490.572L116.648 493.67C116.724 494.733 116.459 495.791 115.891 496.692L113.045 501.207L113.004 501.297C111.548 504.458 107.388 505.202 104.927 502.741L103.578 501.392V501.392C103.382 501.195 103.067 501.441 103.209 501.679L107.297 508.492L119.809 526.414Z" stroke="black" stroke-width="3"/>
<circle cx="896.821" cy="651.52" r="4.73376" fill="#5E0E0E" fill-opacity="0.95"/>
<circle cx="944.835" cy="506.125" r="4.73376" fill="#5E0E0E" fill-opacity="0.95"/>
<circle cx="891.411" cy="412.127" r="4.73376" fill="#5E0E0E" fill-opacity="0.95"/>
<circle cx="817.023" cy="320.156" r="4.73376" fill="#5E0E0E" fill-opacity="0.95"/>
<circle cx="789.297" cy="261.322" r="4.73376" fill="#5E0E0E" fill-opacity="0.95"/>
<circle cx="453.876" cy="153.798" r="4.73376" fill="#5E0E0E" fill-opacity="0.95"/>
<circle cx="267.907" cy="284.991" r="4.73376" fill="#5E0E0E" fill-opacity="0.95"/>
<circle cx="170.527" cy="624.47" r="4.73376" fill="#5E0E0E" fill-opacity="0.95"/>
<circle cx="639.845" cy="670.455" r="4.73376" fill="#5E0E0E" fill-opacity="0.95"/>
<circle cx="766.304" cy="734.022" r="4.73376" fill="#5E0E0E" fill-opacity="0.95"/>
<circle cx="470.782" cy="459.464" r="4.73376" fill="#5E0E0E" fill-opacity="0.95"/>
<circle cx="535.703" cy="413.479" r="4.73376" fill="#5E0E0E" fill-opacity="0.95"/>
<circle cx="802.822" cy="866.568" r="4.73376" fill="#5E0E0E" fill-opacity="0.95"/>
<path d="M847.116 671.131L849.166 677.439L855.799 677.439L850.433 681.338L852.483 687.646L847.116 683.747L841.75 687.646L843.8 681.338L838.434 677.439L845.067 677.439L847.116 671.131Z" fill="#5E0E0E" fill-opacity="0.95"/>
<path d="M790.649 880.769L788.234 879.259C788.041 879.139 787.863 878.997 787.702 878.837L786.253 877.388L782.368 874.15C782.254 874.055 782.146 873.95 782.047 873.839L779.491 870.963L775.577 866.397C775.481 866.286 775.394 866.167 775.316 866.043L769.98 857.568C769.785 857.259 769.648 856.916 769.577 856.558L767.989 848.617C767.77 847.522 767.324 846.485 766.68 845.573L763.817 841.517C763.672 841.312 763.542 841.095 763.43 840.87L760.556 835.122L758.189 829.036L755.822 822.949L755.14 816.352C754.938 814.399 755.897 812.508 757.594 811.519L758.094 811.227C758.604 810.929 759.163 810.724 759.744 810.622L762.787 810.085C763.965 809.877 765.179 810.099 766.208 810.71L775.433 816.187L777.634 817.41C778.188 817.717 778.806 817.889 779.439 817.911L788.282 818.216L789.296 818.892L795.045 818.892L800.793 818.892L803.16 817.539L805.527 816.187L808.187 814.59C808.664 814.304 809.186 814.1 809.73 813.985L815.332 812.806L819.554 812.524C820.117 812.487 820.682 812.545 821.225 812.696L822.918 813.166C825.04 813.755 826.526 815.663 826.579 817.864L826.828 828.359L823.679 832.082C823.302 832.527 823.006 833.035 822.804 833.583L820.742 839.179L819.052 842.561L818.178 845.763C818.085 846.106 818.037 846.46 818.037 846.816L818.037 851.69L817.463 856.288C817.396 856.824 817.221 857.341 816.949 857.808L814.995 861.158L809.923 869.611L808.232 872.316L806.88 874.345L803.128 878.721C802.925 878.959 802.699 879.177 802.455 879.372L799.441 881.783L794.765 881.783C794.278 881.783 793.794 881.712 793.328 881.572L790.65 880.769" stroke="black" stroke-width="3"/>
</svg>
