<svg width="63" height="59" viewBox="0 0 63 59" fill="none" xmlns="http://www.w3.org/2000/svg">
<path d="M55.2591 15.2967L55.5059 14.3096L60.2861 14.6085C60.4679 14.6199 60.6504 14.6032 60.8271 14.559C61.9641 14.2747 62.5178 12.9855 61.941 11.9652L61.2439 10.7319C61.1049 10.486 60.9302 10.262 60.7254 10.0675L58.2592 7.72459C58.0057 7.48379 57.7073 7.29526 57.381 7.16975C56.4276 6.80307 55.7679 5.92336 55.6831 4.90541L55.5059 2.77922L55.0321 1.67358L55.0131 1.64072C54.3459 0.488413 52.631 0.663133 52.2099 1.92631C52.0944 2.27303 52.1054 2.64949 52.2412 2.98882L52.8286 4.45756C52.9283 4.70675 52.9993 4.9665 53.0401 5.23177C53.2011 6.2787 52.8835 7.34262 52.1749 8.12993L51.4389 8.94766C50.7942 9.66389 50.3703 10.5511 50.218 11.5027L50.1354 12.0193L50.0672 12.4452C49.9059 13.4533 49.4399 14.388 48.7316 15.1234L45.7127 18.2584L38.9208 20.4698L33.3627 24.0325C32.9633 24.2886 32.6023 24.6002 32.2906 24.9581L29.0449 28.6846C28.6813 29.1021 28.3896 29.577 28.1816 30.09L26.4293 34.4123C26.2287 34.9071 26.1087 35.4309 26.0737 35.9637L25.5435 44.05C25.5111 44.5435 25.4057 45.0296 25.2306 45.4922L24.0029 48.737C23.5415 49.9563 22.6222 50.9472 21.4409 51.4985L17.0954 53.5264C16.4883 53.8097 15.8305 53.9681 15.161 53.9922L7.40913 54.2716L0.538212 54.2716C0.412391 54.2716 0.381191 54.4465 0.499257 54.49L8.67233 57.5011C8.82966 57.5591 8.99484 57.593 9.16228 57.6016L17.507 58.0333C17.8817 58.0526 18.2575 58.0298 18.6271 57.9651L23.4504 57.121C24.0706 57.0125 24.6646 56.7878 25.2014 56.4589L28.3685 54.5177C28.9729 54.1472 29.4917 53.6525 29.8903 53.0663L30.8132 51.7091C31.5252 50.6619 32.758 50.0943 34.0167 50.2342L34.3867 50.2753C35.51 50.4001 36.4531 51.1774 36.7902 52.2561C36.944 52.7481 36.9613 53.2726 36.8403 53.7737L36.8274 53.8272C36.3648 55.7439 37.8171 57.5886 39.7889 57.5886L54.8738 57.5886C55.6589 57.5886 56.2953 56.9521 56.2953 56.167C56.2953 55.3819 55.6589 54.7455 54.8738 54.7455L45.2164 54.7454C42.8736 54.7454 40.9743 52.8462 40.9743 50.5033C40.9743 49.4709 41.3508 48.4739 42.0333 47.6992L45.725 43.5086C46.4351 42.7025 46.8667 41.6892 46.9559 40.6186L47.6826 31.8985C47.7334 31.2895 48.1421 30.7694 48.7218 30.5762C49.5082 30.314 50.3601 30.7268 50.6417 31.5065L52.1889 35.7912C53.3871 37.2141 55.6814 36.0141 55.1961 34.2183L54.0843 30.1048L52.7622 28.2539C51.6402 26.6832 51.5226 24.6069 52.4601 22.9195L53.7642 20.572C53.9767 20.1896 54.138 19.7809 54.2442 19.3565L55.2591 15.2967Z" fill="#A52A2A"/>
</svg>