<svg width="297" height="88" viewBox="0 0 297 88" fill="none" xmlns="http://www.w3.org/2000/svg">
<path d="M56.5059 26.3096L55.2442 31.3565C55.138 31.7809 54.9767 32.1896 54.7642 32.572L53.4601 34.9195C52.5227 36.6069 52.6402 38.6832 53.7622 40.2539L55.0843 42.1048L56.1961 46.2183C56.6814 48.0141 54.3871 49.2141 53.1889 47.7912V47.7912L51.6417 43.5065C51.3601 42.7268 50.5082 42.314 49.7218 42.5762V42.5762C49.1421 42.7694 48.7334 43.2895 48.6826 43.8985L47.9559 52.6186C47.8667 53.6892 47.4351 54.7025 46.725 55.5086L43.0333 59.6992C42.3508 60.4739 41.9743 61.4709 41.9743 62.5033V62.5033C41.9743 64.8462 43.8736 66.7454 46.2164 66.7454L55.8738 66.7455C56.6589 66.7455 57.2953 67.3819 57.2953 68.167V68.167C57.2953 68.9521 56.6589 69.5886 55.8738 69.5886L40.7889 69.5886C38.8171 69.5886 37.3648 67.7439 37.8274 65.8272L37.8403 65.7737C37.9613 65.2726 37.944 64.7481 37.7902 64.2561V64.2561C37.4531 63.1774 36.51 62.4001 35.3867 62.2753L35.0167 62.2342C33.758 62.0943 32.5252 62.6619 31.8132 63.7091L30.8903 65.0663C30.4917 65.6525 29.9729 66.1473 29.3685 66.5177L26.2014 68.4589C25.6646 68.7878 25.0706 69.0125 24.4505 69.121L19.6271 69.9651C19.2575 70.0298 18.8817 70.0526 18.507 70.0333L10.1623 69.6016C9.99484 69.593 9.82966 69.5591 9.67233 69.5011L1.49926 66.49C1.38119 66.4465 1.41239 66.2716 1.53821 66.2716V66.2716L8.40913 66.2716L16.161 65.9922C16.8305 65.9681 17.4883 65.8097 18.0954 65.5264L22.4409 63.4985C23.6222 62.9472 24.5415 61.9563 25.0029 60.737L26.2306 57.4922C26.4057 57.0296 26.5111 56.5435 26.5435 56.05L27.0737 47.9637C27.1087 47.4309 27.2287 46.9071 27.4293 46.4123L29.1816 42.09C29.3896 41.577 29.6813 41.1021 30.0449 40.6846L33.2906 36.9581C33.6023 36.6002 33.9633 36.2886 34.3627 36.0325L39.9208 32.4698L46.7127 30.2584L49.7316 27.1234C50.4399 26.388 50.9059 25.4533 51.0672 24.4452L51.1354 24.0193L51.218 23.5027C51.3703 22.5511 51.7942 21.6639 52.4389 20.9477L53.1749 20.1299C53.8835 19.3426 54.2011 18.2787 54.0401 17.2318V17.2318C53.9993 16.9665 53.9283 16.7068 53.8286 16.4576L53.2412 14.9888C53.1054 14.6495 53.0944 14.273 53.2099 13.9263V13.9263C53.631 12.6631 55.3459 12.4884 56.0131 13.6407L56.0321 13.6736L56.5059 14.7792L56.6831 16.9054C56.7679 17.9234 57.4276 18.8031 58.381 19.1698V19.1698C58.7073 19.2953 59.0057 19.4838 59.2592 19.7246L61.7254 22.0675C61.9302 22.262 62.1049 22.486 62.2439 22.7319L62.941 23.9652C63.5178 24.9855 62.9641 26.2747 61.8271 26.559V26.559C61.6504 26.6032 61.4679 26.6199 61.2861 26.6085L56.5059 26.3096ZM56.5059 26.3096L56.2591 27.2967" stroke="white" stroke-width="2"/>
<path d="M87.512 37.248C89.272 37.248 90.816 37.592 92.144 38.28C93.488 38.968 94.52 39.952 95.24 41.232C95.976 42.496 96.344 43.968 96.344 45.648C96.344 47.328 95.976 48.8 95.24 50.064C94.52 51.312 93.488 52.28 92.144 52.968C90.816 53.656 89.272 54 87.512 54H81.656V37.248H87.512ZM87.392 51.144C89.152 51.144 90.512 50.664 91.472 49.704C92.432 48.744 92.912 47.392 92.912 45.648C92.912 43.904 92.432 42.544 91.472 41.568C90.512 40.576 89.152 40.08 87.392 40.08H85.016V51.144H87.392ZM100.563 39.12C99.9711 39.12 99.4751 38.936 99.0751 38.568C98.6911 38.184 98.4991 37.712 98.4991 37.152C98.4991 36.592 98.6911 36.128 99.0751 35.76C99.4751 35.376 99.9711 35.184 100.563 35.184C101.155 35.184 101.643 35.376 102.027 35.76C102.427 36.128 102.627 36.592 102.627 37.152C102.627 37.712 102.427 38.184 102.027 38.568C101.643 38.936 101.155 39.12 100.563 39.12ZM102.219 40.704V54H98.8591V40.704H102.219ZM110.627 54.216C109.539 54.216 108.563 54.024 107.699 53.64C106.835 53.24 106.147 52.704 105.635 52.032C105.139 51.36 104.867 50.616 104.819 49.8H108.203C108.267 50.312 108.515 50.736 108.947 51.072C109.395 51.408 109.947 51.576 110.603 51.576C111.243 51.576 111.739 51.448 112.091 51.192C112.459 50.936 112.643 50.608 112.643 50.208C112.643 49.776 112.419 49.456 111.971 49.248C111.539 49.024 110.843 48.784 109.883 48.528C108.891 48.288 108.075 48.04 107.435 47.784C106.811 47.528 106.267 47.136 105.803 46.608C105.355 46.08 105.131 45.368 105.131 44.472C105.131 43.736 105.339 43.064 105.755 42.456C106.187 41.848 106.795 41.368 107.579 41.016C108.379 40.664 109.315 40.488 110.387 40.488C111.971 40.488 113.235 40.888 114.179 41.688C115.123 42.472 115.643 43.536 115.739 44.88H112.523C112.475 44.352 112.251 43.936 111.851 43.632C111.467 43.312 110.947 43.152 110.291 43.152C109.683 43.152 109.211 43.264 108.875 43.488C108.555 43.712 108.395 44.024 108.395 44.424C108.395 44.872 108.619 45.216 109.067 45.456C109.515 45.68 110.211 45.912 111.155 46.152C112.115 46.392 112.907 46.64 113.531 46.896C114.155 47.152 114.691 47.552 115.139 48.096C115.603 48.624 115.843 49.328 115.859 50.208C115.859 50.976 115.643 51.664 115.211 52.272C114.795 52.88 114.187 53.36 113.387 53.712C112.603 54.048 111.683 54.216 110.627 54.216ZM117.753 47.352C117.753 45.976 118.033 44.776 118.593 43.752C119.153 42.712 119.929 41.912 120.921 41.352C121.913 40.776 123.049 40.488 124.329 40.488C125.977 40.488 127.337 40.904 128.409 41.736C129.497 42.552 130.225 43.704 130.593 45.192H126.969C126.777 44.616 126.449 44.168 125.985 43.848C125.537 43.512 124.977 43.344 124.305 43.344C123.345 43.344 122.585 43.696 122.025 44.4C121.465 45.088 121.185 46.072 121.185 47.352C121.185 48.616 121.465 49.6 122.025 50.304C122.585 50.992 123.345 51.336 124.305 51.336C125.665 51.336 126.553 50.728 126.969 49.512H130.593C130.225 50.952 129.497 52.096 128.409 52.944C127.321 53.792 125.961 54.216 124.329 54.216C123.049 54.216 121.913 53.936 120.921 53.376C119.929 52.8 119.153 52 118.593 50.976C118.033 49.936 117.753 48.728 117.753 47.352ZM138.958 54.216C137.678 54.216 136.526 53.936 135.502 53.376C134.478 52.8 133.67 51.992 133.078 50.952C132.502 49.912 132.214 48.712 132.214 47.352C132.214 45.992 132.51 44.792 133.102 43.752C133.71 42.712 134.534 41.912 135.574 41.352C136.614 40.776 137.774 40.488 139.054 40.488C140.334 40.488 141.494 40.776 142.534 41.352C143.574 41.912 144.39 42.712 144.982 43.752C145.59 44.792 145.894 45.992 145.894 47.352C145.894 48.712 145.582 49.912 144.958 50.952C144.35 51.992 143.518 52.8 142.462 53.376C141.422 53.936 140.254 54.216 138.958 54.216ZM138.958 51.288C139.566 51.288 140.134 51.144 140.662 50.856C141.206 50.552 141.638 50.104 141.958 49.512C142.278 48.92 142.438 48.2 142.438 47.352C142.438 46.088 142.102 45.12 141.43 44.448C140.774 43.76 139.966 43.416 139.006 43.416C138.046 43.416 137.238 43.76 136.582 44.448C135.942 45.12 135.622 46.088 135.622 47.352C135.622 48.616 135.934 49.592 136.558 50.28C137.198 50.952 137.998 51.288 138.958 51.288ZM153.903 50.904L157.263 40.704H160.839L155.919 54H151.839L146.943 40.704H150.543L153.903 50.904ZM175.086 47.064C175.086 47.544 175.054 47.976 174.99 48.36H165.27C165.35 49.32 165.686 50.072 166.278 50.616C166.87 51.16 167.598 51.432 168.462 51.432C169.71 51.432 170.598 50.896 171.126 49.824H174.75C174.366 51.104 173.63 52.16 172.542 52.992C171.454 53.808 170.118 54.216 168.534 54.216C167.254 54.216 166.102 53.936 165.078 53.376C164.07 52.8 163.278 51.992 162.702 50.952C162.142 49.912 161.862 48.712 161.862 47.352C161.862 45.976 162.142 44.768 162.702 43.728C163.262 42.688 164.046 41.888 165.054 41.328C166.062 40.768 167.222 40.488 168.534 40.488C169.798 40.488 170.926 40.76 171.918 41.304C172.926 41.848 173.702 42.624 174.246 43.632C174.806 44.624 175.086 45.768 175.086 47.064ZM171.606 46.104C171.59 45.24 171.278 44.552 170.67 44.04C170.062 43.512 169.318 43.248 168.438 43.248C167.606 43.248 166.902 43.504 166.326 44.016C165.766 44.512 165.422 45.208 165.294 46.104H171.606ZM180.899 42.768C181.331 42.064 181.891 41.512 182.579 41.112C183.283 40.712 184.083 40.512 184.979 40.512V44.04H184.091C183.035 44.04 182.235 44.288 181.691 44.784C181.163 45.28 180.899 46.144 180.899 47.376V54H177.539V40.704H180.899V42.768ZM197.514 50.808H190.842L189.738 54H186.21L192.234 37.224H196.146L202.17 54H198.618L197.514 50.808ZM196.602 48.12L194.178 41.112L191.754 48.12H196.602ZM216.974 40.704V54H213.59V52.32C213.158 52.896 212.59 53.352 211.886 53.688C211.198 54.008 210.446 54.168 209.63 54.168C208.59 54.168 207.67 53.952 206.87 53.52C206.07 53.072 205.438 52.424 204.974 51.576C204.526 50.712 204.302 49.688 204.302 48.504V40.704H207.662V48.024C207.662 49.08 207.926 49.896 208.454 50.472C208.982 51.032 209.702 51.312 210.614 51.312C211.542 51.312 212.27 51.032 212.798 50.472C213.326 49.896 213.59 49.08 213.59 48.024V40.704H216.974ZM225.377 54.216C224.289 54.216 223.313 54.024 222.449 53.64C221.585 53.24 220.897 52.704 220.385 52.032C219.889 51.36 219.617 50.616 219.569 49.8H222.953C223.017 50.312 223.265 50.736 223.697 51.072C224.145 51.408 224.697 51.576 225.353 51.576C225.993 51.576 226.489 51.448 226.841 51.192C227.209 50.936 227.393 50.608 227.393 50.208C227.393 49.776 227.169 49.456 226.721 49.248C226.289 49.024 225.593 48.784 224.633 48.528C223.641 48.288 222.825 48.04 222.185 47.784C221.561 47.528 221.017 47.136 220.553 46.608C220.105 46.08 219.881 45.368 219.881 44.472C219.881 43.736 220.089 43.064 220.505 42.456C220.937 41.848 221.545 41.368 222.329 41.016C223.129 40.664 224.065 40.488 225.137 40.488C226.721 40.488 227.985 40.888 228.929 41.688C229.873 42.472 230.393 43.536 230.489 44.88H227.273C227.225 44.352 227.001 43.936 226.601 43.632C226.217 43.312 225.697 43.152 225.041 43.152C224.433 43.152 223.961 43.264 223.625 43.488C223.305 43.712 223.145 44.024 223.145 44.424C223.145 44.872 223.369 45.216 223.817 45.456C224.265 45.68 224.961 45.912 225.905 46.152C226.865 46.392 227.657 46.64 228.281 46.896C228.905 47.152 229.441 47.552 229.889 48.096C230.353 48.624 230.593 49.328 230.609 50.208C230.609 50.976 230.393 51.664 229.961 52.272C229.545 52.88 228.937 53.36 228.137 53.712C227.353 54.048 226.433 54.216 225.377 54.216ZM237.279 43.464V49.896C237.279 50.344 237.383 50.672 237.591 50.88C237.815 51.072 238.183 51.168 238.695 51.168H240.255V54H238.143C235.311 54 233.895 52.624 233.895 49.872V43.464H232.311V40.704H233.895V37.416H237.279V40.704H240.255V43.464H237.279ZM246.032 42.768C246.464 42.064 247.024 41.512 247.712 41.112C248.416 40.712 249.216 40.512 250.112 40.512V44.04H249.224C248.168 44.04 247.368 44.288 246.824 44.784C246.296 45.28 246.032 46.144 246.032 47.376V54H242.672V40.704H246.032V42.768ZM251.511 47.304C251.511 45.96 251.775 44.768 252.303 43.728C252.847 42.688 253.575 41.888 254.487 41.328C255.415 40.768 256.447 40.488 257.583 40.488C258.575 40.488 259.439 40.688 260.175 41.088C260.927 41.488 261.527 41.992 261.975 42.6V40.704H265.359V54H261.975V52.056C261.543 52.68 260.943 53.2 260.175 53.616C259.423 54.016 258.551 54.216 257.559 54.216C256.439 54.216 255.415 53.928 254.487 53.352C253.575 52.776 252.847 51.968 252.303 50.928C251.775 49.872 251.511 48.664 251.511 47.304ZM261.975 47.352C261.975 46.536 261.815 45.84 261.495 45.264C261.175 44.672 260.743 44.224 260.199 43.92C259.655 43.6 259.071 43.44 258.447 43.44C257.823 43.44 257.247 43.592 256.719 43.896C256.191 44.2 255.759 44.648 255.423 45.24C255.103 45.816 254.943 46.504 254.943 47.304C254.943 48.104 255.103 48.808 255.423 49.416C255.759 50.008 256.191 50.464 256.719 50.784C257.263 51.104 257.839 51.264 258.447 51.264C259.071 51.264 259.655 51.112 260.199 50.808C260.743 50.488 261.175 50.04 261.495 49.464C261.815 48.872 261.975 48.168 261.975 47.352ZM272 36.24V54H268.64V36.24H272ZM277.024 39.12C276.432 39.12 275.936 38.936 275.536 38.568C275.152 38.184 274.96 37.712 274.96 37.152C274.96 36.592 275.152 36.128 275.536 35.76C275.936 35.376 276.432 35.184 277.024 35.184C277.616 35.184 278.104 35.376 278.488 35.76C278.888 36.128 279.088 36.592 279.088 37.152C279.088 37.712 278.888 38.184 278.488 38.568C278.104 38.936 277.616 39.12 277.024 39.12ZM278.68 40.704V54H275.32V40.704H278.68ZM281.136 47.304C281.136 45.96 281.4 44.768 281.928 43.728C282.472 42.688 283.2 41.888 284.112 41.328C285.04 40.768 286.072 40.488 287.208 40.488C288.2 40.488 289.064 40.688 289.8 41.088C290.552 41.488 291.152 41.992 291.6 42.6V40.704H294.984V54H291.6V52.056C291.168 52.68 290.568 53.2 289.8 53.616C289.048 54.016 288.176 54.216 287.184 54.216C286.064 54.216 285.04 53.928 284.112 53.352C283.2 52.776 282.472 51.968 281.928 50.928C281.4 49.872 281.136 48.664 281.136 47.304ZM291.6 47.352C291.6 46.536 291.44 45.84 291.12 45.264C290.8 44.672 290.368 44.224 289.824 43.92C289.28 43.6 288.696 43.44 288.072 43.44C287.448 43.44 286.872 43.592 286.344 43.896C285.816 44.2 285.384 44.648 285.048 45.24C284.728 45.816 284.568 46.504 284.568 47.304C284.568 48.104 284.728 48.808 285.048 49.416C285.384 50.008 285.816 50.464 286.344 50.784C286.888 51.104 287.464 51.264 288.072 51.264C288.696 51.264 289.28 51.112 289.824 50.808C290.368 50.488 290.8 50.04 291.12 49.464C291.44 48.872 291.6 48.168 291.6 47.352Z" fill="white"/>
</svg>
